HIERARCHY
ROOT Hips
{
	OFFSET -0.001795 -0.223333 0.028219
	CHANNELS 6 Xposition Yposition Zposition Zrotation Yrotation Xrotation 
	JOINT LeftUpLeg
	{
		OFFSET 0.069520 -0.091406 -0.006815
		CHANNELS 3 Zrotation Yrotation Xrotation
		JOINT LeftLeg
		{
			OFFSET 0.034277 -0.375199 -0.004496
			CHANNELS 3 Zrotation Yrotation Xrotation
			JOINT LeftFoot
			{
				OFFSET -0.013596 -0.397961 -0.043693
				CHANNELS 3 Zrotation Yrotation Xrotation
				JOINT LeftToe
				{
					OFFSET 0.026358 -0.055791 0.119288
					CHANNELS 3 Zrotation Yrotation Xrotation
					End Site
					{
						OFFSET 0.000000 0.000000 0.000000
					}
				}
			}
		}
	}
	JOINT RightUpLeg
	{
		OFFSET -0.067670 -0.090522 -0.004320
		CHANNELS 3 Zrotation Yrotation Xrotation
		JOINT RightLeg
		{
			OFFSET -0.038290 -0.382569 -0.008850
			CHANNELS 3 Zrotation Yrotation Xrotation
			JOINT RightFoot
			{
				OFFSET 0.015774 -0.398415 -0.042312
				CHANNELS 3 Zrotation Yrotation Xrotation
				JOINT RightToe
				{
					OFFSET -0.025372 -0.048144 0.123348
					CHANNELS 3 Zrotation Yrotation Xrotation
					End Site
					{
						OFFSET 0.000000 0.000000 0.000000
					}
				}
			}
		}
	}
	JOINT Spine
	{
		OFFSET -0.002533 0.108963 -0.026696
		CHANNELS 3 Zrotation Yrotation Xrotation
		JOINT Spine1
		{
			OFFSET 0.005487 0.135180 0.001092
			CHANNELS 3 Zrotation Yrotation Xrotation
			JOINT Spine2
			{
				OFFSET 0.001457 0.052922 0.025425
				CHANNELS 3 Zrotation Yrotation Xrotation
				JOINT Neck
				{
					OFFSET -0.002778 0.213870 -0.042857
					CHANNELS 3 Zrotation Yrotation Xrotation
					JOINT Head
					{
						OFFSET 0.005152 0.064970 0.051349
						CHANNELS 3 Zrotation Yrotation Xrotation
						End Site
						{
							OFFSET 0.000000 0.000000 0.000000
						}
					}
				}
				JOINT LeftShoulder
				{
					OFFSET 0.078845 0.121749 -0.034090
					CHANNELS 3 Zrotation Yrotation Xrotation
					JOINT LeftArm
					{
						OFFSET 0.090977 0.030469 -0.008868
						CHANNELS 3 Zrotation Yrotation Xrotation
						JOINT LeftForeArm
						{
							OFFSET 0.259612 -0.012772 -0.027456
							CHANNELS 3 Zrotation Yrotation Xrotation
							JOINT LeftHand
							{
								OFFSET 0.249234 0.008986 -0.001171
								CHANNELS 3 Zrotation Yrotation Xrotation
								End Site
								{
									OFFSET 0.000000 0.000000 0.000000
								}
							}
						}
					}
				}
				JOINT RightShoulder
				{
					OFFSET -0.081759 0.118833 -0.038615
					CHANNELS 3 Zrotation Yrotation Xrotation
					JOINT RightArm
					{
						OFFSET -0.096012 0.032551 -0.009143
						CHANNELS 3 Zrotation Yrotation Xrotation
						JOINT RightForeArm
						{
							OFFSET -0.253742 -0.013329 -0.021401
							CHANNELS 3 Zrotation Yrotation Xrotation
							JOINT RightHand
							{
								OFFSET -0.255298 0.007772 -0.005559
								CHANNELS 3 Zrotation Yrotation Xrotation
								End Site
								{
									OFFSET 0.000000 0.000000 0.000000
								}
							}
						}
					}
				}
			}
		}
	}
}
MOTION
Frames: 8
Frame Time: 0.050000
-0.101741 0.944355 0.076286 -0.541404 52.473903 -2.293077 9.103525 -1.211684 -7.631894 -4.805043 -0.507296 8.825408 4.213403 15.498533 15.927339 0.000000 0.000000 0.000000 -9.032607 -1.704348 -6.049502 5.917215 -2.230728 6.083368 -1.865531 -1.932732 20.964604 0.000000 0.000000 0.000000 -4.827797 -6.318593 36.459651 -8.375660 2.879935 -26.033948 -2.291108 15.949682 26.672641 16.996221 -4.529697 -19.799686 0.000000 0.000000 0.000000 -8.902363 -27.910946 3.487510 -40.134003 -14.864716 0.092556 -1.986956 -62.255684 -6.689418 0.000000 0.000000 0.000000 27.977265 6.135120 17.292591 53.463917 45.030907 11.781690 12.659897 47.633324 10.807040 0.000000 0.000000 0.000000 
-0.102245 0.944454 0.075991 -0.499084 52.536521 -2.009247 8.932839 -1.211858 -7.964175 -4.537286 -0.522163 8.845175 4.151814 15.479581 15.968988 0.000000 0.000000 0.000000 -9.151563 -1.745439 -6.284907 6.096777 -2.276138 5.971406 -1.875736 -1.935607 21.077838 0.000000 0.000000 0.000000 -5.142024 -6.376561 36.880281 -8.058694 2.846614 -26.011577 -2.417079 15.975324 26.630569 16.924101 -4.862690 -18.933765 0.000000 0.000000 0.000000 -9.372942 -28.227734 3.465301 -39.409608 -14.365555 0.127533 -2.176805 -61.612872 -6.332641 0.000000 0.000000 0.000000 28.172244 6.305426 17.508302 53.056999 45.062730 11.537531 12.143110 47.645941 10.539258 0.000000 0.000000 0.000000 
-0.102777 0.944979 0.076011 -0.650911 52.490452 -1.815686 8.925573 -1.230699 -8.331467 -4.291884 -0.532440 8.857539 4.121124 15.543643 16.144458 0.000000 0.000000 0.000000 -9.049669 -1.713180 -6.414050 6.184501 -2.238961 5.518070 -1.887290 -1.928202 21.356139 0.000000 0.000000 0.000000 -5.335805 -6.416338 37.179910 -7.919242 2.816457 -26.100663 -2.453123 15.986610 26.524547 16.946970 -5.083432 -18.516887 0.000000 0.000000 0.000000 -9.457484 -28.326540 3.503196 -38.974370 -14.250181 0.146791 -3.040659 -61.195742 -5.672793 0.000000 0.000000 0.000000 28.491786 6.288998 17.633951 52.760572 45.103236 11.333297 11.626695 47.758390 10.318578 0.000000 0.000000 0.000000 
-0.103243 0.945456 0.076368 -0.685683 52.520096 -1.560820 8.947995 -1.256826 -8.711923 -4.219013 -0.545080 8.946322 4.062901 15.583200 16.330305 0.000000 0.000000 0.000000 -8.893373 -1.674747 -6.578944 6.055388 -2.160860 5.243278 -1.961306 -1.999569 21.525874 0.000000 0.000000 0.000000 -5.563569 -6.483985 37.555916 -7.541574 2.731225 -26.334014 -2.676494 15.973523 26.360094 17.061533 -5.158994 -18.596795 0.000000 0.000000 0.000000 -9.226619 -28.290969 3.573848 -38.709641 -14.081762 0.094459 -4.213057 -61.676767 -5.077284 0.000000 0.000000 0.000000 28.471562 6.142742 17.502032 53.208930 45.006581 11.492993 11.391717 47.997943 10.342438 0.000000 0.000000 0.000000 
-0.103369 0.945699 0.076968 -0.811891 52.365790 -1.403358 8.997853 -1.271843 -8.893292 -4.074104 -0.540978 8.862762 4.121417 15.699089 16.447537 0.000000 0.000000 0.000000 -8.797566 -1.639827 -6.652351 6.140983 -2.132449 4.846708 -1.921254 -1.938921 21.650252 0.000000 0.000000 0.000000 -5.657346 -6.424097 37.525482 -7.312142 2.660700 -26.636362 -2.779750 15.881326 26.446877 17.040363 -5.139511 -18.654083 0.000000 0.000000 0.000000 -8.975435 -28.232330 3.663998 -38.853540 -14.254639 0.047918 -5.807440 -62.498282 -4.246132 0.000000 0.000000 0.000000 28.883567 5.846954 17.482506 53.180784 44.850879 11.249571 11.971973 48.787445 10.941924 0.000000 0.000000 0.000000 
-0.103050 0.945768 0.077730 -0.872482 52.524136 -1.394036 8.954958 -1.270457 -8.869670 -3.876226 -0.541780 8.742828 4.017647 15.572543 16.392717 0.000000 0.000000 0.000000 -8.587427 -1.585726 -6.524732 5.903484 -2.038508 4.638526 -2.071180 -2.113960 21.623198 0.000000 0.000000 0.000000 -5.593360 -6.484387 37.572060 -6.997447 2.617812 -26.626662 -3.140365 15.744756 26.216784 17.168890 -5.127191 -18.944520 0.000000 0.000000 0.000000 -9.189124 -28.424457 3.674715 -38.621273 -14.209188 0.113825 -8.018917 -63.207873 -2.971979 0.000000 0.000000 0.000000 29.378003 5.488596 17.475771 53.147149 44.539059 10.908779 12.426393 49.399805 11.435171 0.000000 0.000000 0.000000 
-0.102473 0.945350 0.078626 -0.836557 52.423286 -1.447751 8.904066 -1.247116 -8.582004 -3.779740 -0.527217 8.564493 4.092816 15.576753 16.259699 0.000000 0.000000 0.000000 -8.675883 -1.592091 -6.237835 6.061679 -2.055754 4.380305 -2.015770 -2.062242 21.438187 0.000000 0.000000 0.000000 -5.466903 -6.478280 37.480798 -6.791918 2.573691 -26.757572 -3.552185 15.741104 26.258839 17.055792 -4.924184 -19.195900 0.000000 0.000000 0.000000 -9.472141 -28.633126 3.666735 -38.522557 -14.122003 0.157556 -9.584859 -63.807579 -2.054850 0.000000 0.000000 0.000000 29.836276 4.989249 17.366209 53.191970 44.075589 10.514272 13.355125 50.229310 12.280629 0.000000 0.000000 0.000000 
-0.101949 0.945228 0.079531 -0.829562 52.465810 -1.663811 8.766771 -1.215136 -8.263601 -3.506902 -0.536480 8.542465 4.049287 15.467725 16.141901 0.000000 0.000000 0.000000 -8.544409 -1.548963 -5.832083 5.866807 -1.979363 4.216027 -2.079941 -2.145883 21.288788 0.000000 0.000000 0.000000 -5.384588 -6.535441 37.550670 -6.828811 2.608851 -26.565403 -3.739583 15.468981 26.059687 16.916473 -4.665773 -19.639086 0.000000 0.000000 0.000000 -9.790949 -28.654458 3.631158 -38.496808 -14.287743 0.271015 -11.232473 -63.861244 -0.956533 0.000000 0.000000 0.000000 30.129757 4.870666 17.320963 53.288444 43.734180 10.280133 13.675484 50.848654 12.719506 0.000000 0.000000 0.000000 
